      <svg
        xmlns="http://www.w3.org/2000/svg"
        viewBox="0 0 64 64"
        width="32"
        height="32"
        style="background-color: var(--background-color, white)"
      >
        <polygon
          points="10,0 54,0 64,28 64,58 54,58 56,64 8,64 10,58 0,58 0,28"
          rx="5"
          fill="var(--foreground-color, black)"
        ></polygon>

        <circle cx="22" cy="16" r="5" fill="var(--background-color, white)" />
        <circle cx="14" cy="40" r="5" fill="var(--background-color, white)" />
        <circle cx="42" cy="16" r="5" fill="var(--background-color, white)" />
        <circle cx="50" cy="40" r="5" fill="var(--background-color, white)" />

        <line
          x1="14"
          x2="20"
          y1="40"
          y2="54"
          stroke="var(--background-color, white)"
          stroke-width="3"
        />
        <line
          x1="20"
          x2="20"
          y1="54"
          y2="64"
          stroke="var(--background-color, white)"
          stroke-width="3"
        />

        <line
          x1="22"
          x2="28"
          y1="16"
          y2="54"
          stroke="var(--background-color, white)"
          stroke-width="3"
        />
        <line
          x1="28"
          x2="28"
          y1="54"
          y2="64"
          stroke="var(--background-color, white)"
          stroke-width="3"
        />

        <line
          x1="42"
          x2="36"
          y1="16"
          y2="54"
          stroke="var(--background-color, white)"
          stroke-width="3"
        />
        <line
          x1="36"
          x2="36"
          y1="54"
          y2="64"
          stroke="var(--background-color, white)"
          stroke-width="3"
        />

        <line
          x1="50"
          x2="44"
          y1="40"
          y2="54"
          stroke="var(--background-color, white)"
          stroke-width="3"
        />
        <line
          x1="44"
          x2="44"
          y1="54"
          y2="64"
          stroke="var(--background-color, white)"
          stroke-width="3"
        />
      </svg>